{"title":"Eurovision Song Contest 2011 Final BBC One HD 1080i HDTV DD5.1 H","uid":6398118,"size":15507498215,"categoryP":"video","categoryS":"hd___tv_shows","magnet":"?xt=urn:btih:9fb4c6c12558ddd3e50ed4c3f8b00ed22fda242a&amp;dn=Eurovision+Song+Contest+2011+Final+BBC+One+HD+1080i+HDTV+DD5.1+H&amp;tr=udp%3A%2F%2Ftracker.openbittorrent.com%3A80&amp;tr=udp%3A%2F%2Fopen.demonii.com%3A1337&amp;tr=udp%3A%2F%2Ftracker.coppersurfer.tk%3A6969&amp;tr=udp%3A%2F%2Fexodus.desync.com%3A6969","seeders":1,"leechers":0,"uploader":"brbRosa","files":-1,"time":1305580623,"description":"General\n\nID : 1\nComplete name : Eurovision Song Contest 2011 Final BBC One HD 1080i HDTV DD5.1 H.264-CtrlHD.ts\nFormat : MPEG-TS\nFile size : 14.4 GiB\nDuration : 3h 28mn\nOverall bit rate : 9 918 Kbps\n\nVideo\n\nID : 5400 (0x1518)\nMenu ID : 1 (0x1)\nFormat : AVC\nFormat/Info : Advanced Video Codec\nFormat profile : &lt;a class=&quot;__cf_email__&quot; href=&quot;/cdn-cgi/l/email-protection&quot; data-cfemail=&quot;7d35141a153d3149534d&quot;&gt;[email&amp;#160;protected]&lt;/a&gt;&lt;script cf-hash='f9e31' type=&quot;text/javascript&quot;&gt;\n/* &lt;![CDATA[ */!function(){try{var t=&quot;currentScript&quot;in document?document.currentScript:function(){for(var t=document.getElementsByTagName(&quot;script&quot;),e=t.length;e--;)if(t[e].getAttribute(&quot;cf-hash&quot;))return t[e]}();if(t&amp;&amp;t.previousSibling){var e,r,n,i,c=t.previousSibling,a=c.getAttribute(&quot;data-cfemail&quot;);if(a){for(e=&quot;&quot;,r=parseInt(a.substr(0,2),16),n=2;a.length-n;n+=2)i=parseInt(a.substr(n,2),16)^r,e+=String.fromCharCode(i);e=document.createTextNode(e),c.parentNode.replaceChild(e,c)}}}catch(u){}}();/* ]]&gt; */&lt;/script&gt;\nFormat settings, CABAC : Yes\nFormat settings, ReFrames : 4 frames\nDuration : 3h 28mn\nBit rate : 9 040 Kbps\nWidth : 1 440 pixels\nHeight : 1 080 pixels\nDisplay aspect ratio : 16:9\nFrame rate : 25.000 fps\nColor space : YUV\nChroma subsampling : 4:2:0\nBit depth : 8 bits\nScan type : MBAFF\nBits/(Pixel*Frame) : 0.233\nStream size : 13.2 GiB (91%)\nColor primaries : BT.709-5, BT.1361, IEC 61966-2-4, SMPTE RP177\nTransfer characteristics : BT.709-5, BT.1361\nMatrix coefficients : BT.709-5, BT.1361, IEC 61966-2-4 709, SMPTE RP177\n\nAudio\n\nID : 5401 (0x1519)\nMenu ID : 1 (0x1)\nFormat : AC-3\nFormat/Info : Audio Coding 3\nMode extension : CM (complete main)\nDuration : 3h 28mn\nBit rate mode : Constant\nBit rate : 384 Kbps\nChannel(s) : 6 channels\nChannel positions : Front: L C R, Side: L R, LFE\nSampling rate : 48.0 KHz\nBit depth : 16 bits\nStream size : 572 MiB (4%)\nLanguage : English","torrent":{"xt":"urn:btih:9fb4c6c12558ddd3e50ed4c3f8b00ed22fda242a","amp;dn":"Eurovision+Song+Contest+2011+Final+BBC+One+HD+1080i+HDTV+DD5.1+H","amp;tr":["udp%3A%2F%2Ftracker.openbittorrent.com%3A80","udp%3A%2F%2Fopen.demonii.com%3A1337","udp%3A%2F%2Ftracker.coppersurfer.tk%3A6969","udp%3A%2F%2Fexodus.desync.com%3A6969"],"infoHash":"9fb4c6c12558ddd3e50ed4c3f8b00ed22fda242a","infoHashBuffer":{"type":"Buffer","data":[159,180,198,193,37,88,221,211,229,14,212,195,248,176,14,210,47,218,36,42]},"announce":[],"urlList":[]}}